<?xml version="1.0" encoding="UTF-8" standalone="no"?>
<!-- Created with Inkscape (http://www.inkscape.org/) -->

<svg
   width="35.277031mm"
   height="40.598549mm"
   viewBox="0 0 35.277031 40.598549"
   version="1.1"
   id="svg5"
   xml:space="preserve"
   xmlns:inkscape="http://www.inkscape.org/namespaces/inkscape"
   xmlns:sodipodi="http://sodipodi.sourceforge.net/DTD/sodipodi-0.dtd"
   xmlns="http://www.w3.org/2000/svg"
   xmlns:svg="http://www.w3.org/2000/svg"><sodipodi:namedview
     id="namedview7"
     pagecolor="#ffffff"
     bordercolor="#666666"
     borderopacity="1.0"
     inkscape:showpageshadow="2"
     inkscape:pageopacity="0.0"
     inkscape:pagecheckerboard="0"
     inkscape:deskcolor="#d1d1d1"
     inkscape:document-units="mm"
     showgrid="false" /><defs
     id="defs2"><clipPath
       clipPathUnits="userSpaceOnUse"
       id="clipPath12728"><path
         sodipodi:type="star"
         style="fill:#000000;fill-opacity:1;stroke:none;stroke-width:1;stroke-linecap:round;stroke-linejoin:round;stroke-dasharray:none;stroke-opacity:1;paint-order:stroke markers fill"
         id="path12730"
         inkscape:flatsided="true"
         sodipodi:sides="6"
         sodipodi:cx="65.63372"
         sodipodi:cy="74.968491"
         sodipodi:r1="78.571136"
         sodipodi:r2="68.044601"
         sodipodi:arg1="0.52359878"
         sodipodi:arg2="1.0471976"
         inkscape:rounded="0"
         inkscape:randomized="0"
         d="m 133.67832,114.25406 -68.0446,39.28557 -68.0446,-39.28557 4e-7,-78.571138 L 65.633721,-3.6026459 133.67832,35.682923 Z"
         transform="matrix(0.87316343,-0.50101137,0.49924779,0.87008985,-228.96506,521.99072)" /></clipPath><clipPath
       clipPathUnits="userSpaceOnUse"
       id="clipPath12732"><path
         sodipodi:type="star"
         style="fill:#000000;fill-opacity:1;stroke:none;stroke-width:1;stroke-linecap:round;stroke-linejoin:round;stroke-dasharray:none;stroke-opacity:1;paint-order:stroke markers fill"
         id="path12734"
         inkscape:flatsided="true"
         sodipodi:sides="6"
         sodipodi:cx="65.63372"
         sodipodi:cy="74.968491"
         sodipodi:r1="78.571136"
         sodipodi:r2="68.044601"
         sodipodi:arg1="0.52359878"
         sodipodi:arg2="1.0471976"
         inkscape:rounded="0"
         inkscape:randomized="0"
         d="m 133.67832,114.25406 -68.0446,39.28557 -68.0446,-39.28557 4e-7,-78.571138 L 65.633721,-3.6026459 133.67832,35.682923 Z"
         transform="matrix(1.006691,0,0,1.0031474,-114.9758,-114.51224)" /></clipPath></defs><g
     inkscape:label="Layer 1"
     inkscape:groupmode="layer"
     id="layer1"
     transform="translate(-65.184381,-113.6704)"><g
       id="g692"><path
         sodipodi:type="star"
         style="fill:none;stroke:#000000;stroke-width:2.5;stroke-linejoin:round;stroke-miterlimit:4;stroke-dasharray:none;stroke-opacity:1"
         id="path891-7"
         inkscape:flatsided="true"
         sodipodi:sides="6"
         sodipodi:cx="-48.832626"
         sodipodi:cy="-39.528706"
         sodipodi:r1="75.471756"
         sodipodi:r2="38.159691"
         sodipodi:arg1="0.52214479"
         sodipodi:arg2="1.0457436"
         inkscape:rounded="0"
         inkscape:randomized="0"
         transform="matrix(0.26458333,0,0,0.26458333,95.743196,144.4283)"
         inkscape:transform-center-x="4.2141042"
         inkscape:transform-center-y="-3.1627129"
         inkscape:export-filename="/home/catherine/Documents/epicentre/covid_herat/www/path891.png"
         inkscape:export-xdpi="200"
         inkscape:export-ydpi="200"
         d="m 16.58263,-1.8879006 -65.305522,37.8308716 -65.415258,-37.6408054 -0.10973,-75.4716766 65.305519,-37.830869 65.415256,37.640803 z"
         clip-path="url(#clipPath12732)" /><text
         xml:space="preserve"
         style="font-style:normal;font-variant:normal;font-weight:bold;font-stretch:normal;font-size:15.9901px;line-height:1.25;font-family:Arial;-inkscape-font-specification:'Arial, Bold';font-variant-ligatures:normal;font-variant-caps:normal;font-variant-numeric:normal;font-variant-east-asian:normal;fill:#4d4d4d;fill-opacity:1;stroke:none;stroke-width:1;stroke-linejoin:round;stroke-dasharray:none;stroke-opacity:1;paint-order:stroke markers fill"
         x="-167.75934"
         y="616.24969"
         id="text22359-1-3"
         transform="matrix(0.22973284,-0.13125229,0.13125229,0.22973284,44.187625,-12.202994)"
         clip-path="url(#clipPath12728)"><tspan
           sodipodi:role="line"
           id="tspan22357-8-6"
           x="-167.75934"
           y="616.24969"
           style="font-style:normal;font-variant:normal;font-weight:bold;font-stretch:normal;font-size:15.9901px;font-family:Arial;-inkscape-font-specification:'Arial, Bold';font-variant-ligatures:normal;font-variant-caps:normal;font-variant-numeric:normal;font-variant-east-asian:normal;fill:#4d4d4d;stroke:none;stroke-width:1;stroke-linejoin:round;stroke-dasharray:none;stroke-opacity:1;paint-order:stroke markers fill">ebola</tspan></text><path
         d="m 88.761614,122.54592 2.029003,-2.06826 c 0.129458,-0.13206 0.350751,-0.0998 0.436644,0.0638 l 0.543595,1.03363 c 0.02037,0.0389 0.03116,0.0823 0.03116,0.12616 v 0.26971 h 0.171806 c 0.20282,0 0.334708,0.21268 0.243951,0.39338 l -0.05422,0.10799 0.484526,0.15084 c 0.02063,0.006 0.04045,0.0153 0.05893,0.0264 l 0.49409,0.29533 c 0.101142,0.0604 0.151844,0.17869 0.125687,0.29331 l -0.234104,1.02626 0.199854,0.99592 0.315828,0.063 c 0.106938,0.0214 0.190952,0.10405 0.213475,0.21052 l 0.170454,0.80669 0.376231,0.18745 c 0.02616,0.0136 0.05016,0.0303 0.07094,0.051 l 0.345778,0.34455 c 0.05125,0.051 0.07997,0.1201 0.07997,0.19217 v 0.44393 l 0.629487,0.76139 c 0.07647,0.0925 0.08307,0.22387 0.01632,0.32353 l -0.133366,0.19944 0.469441,2.1516 c 0.0079,0.036 0.0083,0.0731 0.0014,0.10934 l -0.296544,1.52589 c -0.01028,0.0533 -0.03641,0.10219 -0.07485,0.14054 l -0.572595,0.5703 0.144437,0.43127 c 0.02926,0.0876 0.01196,0.1838 -0.04584,0.25583 l -0.197563,0.2461 c -0.02778,0.0346 -0.06352,0.0618 -0.104242,0.0795 l -1.031642,0.44676 -0.452974,1.17349 c -0.01592,0.0412 -0.04166,0.078 -0.07498,0.10692 l -0.365873,0.31878 -0.324727,0.50853 c -0.03074,0.0482 -0.07578,0.0854 -0.128929,0.10646 l -0.361141,0.14388 -0.215228,0.94384 c -0.0083,0.0365 -0.02428,0.071 -0.04666,0.10136 l -0.755738,1.01856 0.301133,0.89974 c 0.01438,0.0433 0.0178,0.0895 0.0096,0.13448 l -0.292093,1.60019 v 2.19044 c 0,0.15008 -0.122173,0.27186 -0.272808,0.27186 h -13.93005 l -0.692352,0.27577 c -0.03209,0.0136 -0.06649,0.0195 -0.101276,0.0195 h -1.179571 l -0.8098,1.34462 c -0.03291,0.0546 -0.08401,0.0959 -0.144301,0.11677 l -1.136419,0.39377 c -0.143619,0.0496 -0.30032,-0.027 -0.348333,-0.17073 l -0.07713,-0.23046 c -0.07161,0.0311 -0.155891,0.0311 -0.230737,-0.006 l -0.294251,-0.14661 -0.485735,0.16129 c -0.17086,0.0568 -0.349127,-0.0644 -0.358587,-0.24355 l -0.0499,-0.94952 v -1.18133 c 0,-0.13281 0.09643,-0.24611 0.228041,-0.26795 l 0.07471,-0.0122 0.04329,-1.59738 0.0056,-0.0486 0.386619,-1.82915 -0.09467,-0.94251 c -0.01196,-0.12055 0.05731,-0.23452 0.170186,-0.27943 l 0.346021,-0.13797 0.07782,-0.5808 c 0.006,-0.0462 0.02415,-0.0899 0.05205,-0.12722 l 0.5351,-0.71068 -0.04597,-1.28235 c -0.0044,-0.12404 0.07606,-0.23532 0.195676,-0.27038 l 0.707164,-0.20714 0.397701,-1.10081 c 0.04086,-0.11268 0.150904,-0.1857 0.271059,-0.17937 l 0.807382,0.0424 3.54721,-3.99254 -0.411442,-0.40983 c -0.05112,-0.051 -0.07997,-0.11993 -0.07997,-0.19216 v -0.18083 l -0.492365,-0.25974 -0.205248,0.26298 c -0.08294,0.10617 -0.231408,0.13585 -0.349126,0.07 l -0.790504,-0.44301 c -0.08576,-0.0482 -0.139029,-0.13872 -0.139029,-0.23694 v -0.73819 c 0,-0.0465 0.01196,-0.0922 0.03479,-0.13282 l 0.607669,-1.08098 -0.49371,-0.6968 c -0.05409,-0.0763 -0.065,-0.17504 -0.02885,-0.26122 l 0.676578,-1.61756 -0.187315,-0.21751 c -0.07944,-0.0925 -0.08753,-0.22643 -0.01982,-0.32771 l 0.592962,-0.88598 c 0.03008,-0.0449 0.07296,-0.08 0.123128,-0.10042 l 0.839869,-0.34456 c 0.03291,-0.0136 0.06824,-0.0204 0.103832,-0.0204 h 0.592962 c 0.04597,0 0.09115,0.0121 0.131487,0.0336 l 0.864828,0.4739 1.306065,-0.62813 c 0.132562,-0.0637 0.291958,-0.0106 0.360209,0.11874 l 0.493572,0.93871 0.567587,0.19784 0.0076,-0.0598 c 0.01045,-0.0829 0.0584,-0.15629 0.130261,-0.19931 l 0.988212,-0.59065 c 0.03182,-0.0191 0.06715,-0.0314 0.103832,-0.0362 l 1.783166,-0.24005 0.848776,-0.42277 c 0.08334,-0.0415 0.182321,-0.0377 0.262293,0.0106 l 0.692733,0.41413 z"
         fill="#2e4472"
         fill-rule="evenodd"
         id="path564"
         clip-path="url(#clipPath579)"
         style="stroke-width:0.0345227" /></g></g></svg>
